<svg width="14" height="14" viewBox="0 0 14 14" fill="none" xmlns="http://www.w3.org/2000/svg">
<path d="M13.1792 7.3695C13.4653 6.99236 13.6237 6.53028 13.6237 6.04952C13.6237 5.28674 13.1962 4.56475 12.5082 4.16213C12.3311 4.05849 12.1294 4.00394 11.9241 4.00413H7.84041L7.94259 1.91628C7.96643 1.41173 7.78762 0.932665 7.44022 0.567419C7.26973 0.387392 7.06404 0.244155 6.83587 0.146562C6.60769 0.0489683 6.36188 -0.000908892 6.11362 1.25376e-05C5.22808 1.25376e-05 4.44472 0.5946 4.20971 1.44571L2.74687 6.72904H2.74176V14H10.7848C10.9415 14 11.0948 13.9694 11.2361 13.9083C12.0467 13.5634 12.5695 12.7735 12.5695 11.8969C12.5695 11.6828 12.5389 11.4722 12.4776 11.2683C12.7637 10.8912 12.922 10.4291 12.922 9.94831C12.922 9.73426 12.8914 9.5236 12.8301 9.31975C13.1162 8.94261 13.2746 8.48053 13.2746 7.99976C13.2711 7.78571 13.2405 7.57336 13.1792 7.3695ZM0 7.27267V13.4564C0 13.7571 0.243523 14 0.544946 14H1.65187V6.72904H0.544946C0.243523 6.72904 0 6.97198 0 7.27267Z" fill="#2D9CDB"/>
</svg>
