<svg width="15" height="14" viewBox="0 0 15 14" fill="none" xmlns="http://www.w3.org/2000/svg">
<path d="M2.91659 0.778121H5.61074C5.75854 0.778166 5.9008 0.834309 6.00879 0.935206C6.11679 1.0361 6.18245 1.17423 6.19253 1.32168C6.2026 1.46913 6.15633 1.6149 6.06306 1.72955C5.9698 1.8442 5.83649 1.91917 5.69007 1.93931L5.61074 1.94476H2.91659C2.47317 1.9447 2.04626 2.11298 1.72215 2.41559C1.39803 2.71819 1.20087 3.13256 1.17053 3.57494L1.16664 3.69471V11.0834C1.16658 11.5268 1.33486 11.9537 1.63747 12.2779C1.94007 12.602 2.35444 12.7991 2.79682 12.8295L2.91659 12.8334H10.3053C10.7487 12.8334 11.1756 12.6651 11.4997 12.3625C11.8238 12.0599 12.021 11.6456 12.0514 11.2032L12.0552 11.0834V10.6961C12.0539 10.5473 12.1095 10.4037 12.2107 10.2945C12.3118 10.1854 12.4508 10.119 12.5992 10.109C12.7476 10.099 12.8943 10.146 13.0092 10.2406C13.1241 10.3351 13.1985 10.4699 13.2172 10.6175L13.2219 10.6961V11.0834C13.2219 11.8301 12.9357 12.5483 12.422 13.0902C11.9083 13.632 11.2064 13.9563 10.4608 13.9961L10.3053 14H2.91659C2.16995 14.0001 1.45171 13.7138 0.909832 13.2001C0.367955 12.6865 0.0437099 11.9845 0.00388889 11.239L1.18013e-08 11.0834V3.69471C-6.71127e-05 2.94807 0.286216 2.22983 0.799878 1.68795C1.31354 1.14608 2.01546 0.821831 2.76104 0.78201L2.91659 0.778121H5.61074H2.91659ZM8.94655 2.75674V0.583681C8.94648 0.476386 8.97601 0.371152 9.03188 0.279553C9.08776 0.187955 9.16781 0.113541 9.26324 0.0644993C9.35867 0.0154572 9.46578 -0.00631358 9.57279 0.00158157C9.67979 0.00947671 9.78254 0.046732 9.86974 0.109249L9.93352 0.162915L14.5954 4.63502C14.8132 4.84346 14.8334 5.17945 14.6553 5.41045L14.5954 5.47655L9.93352 9.95022C9.85616 10.0246 9.75979 10.0761 9.65501 10.0992C9.55024 10.1223 9.44112 10.1161 9.33967 10.0812C9.23821 10.0463 9.14834 9.98412 9.07994 9.90146C9.01154 9.81879 8.96727 9.71887 8.95199 9.61267L8.94655 9.52945V7.35017L8.69689 7.34551C6.62961 7.33928 4.86254 8.18782 3.35758 9.91288C2.97181 10.3547 2.24927 10.0155 2.34183 9.4369C2.98503 5.43922 5.14176 3.17984 8.71166 2.78007L8.94655 2.75674V0.583681V2.75674Z" fill="#2D9CDB"/>
</svg>
